<svg width="48" height="48" viewBox="0 0 48 48" fill="none" xmlns="http://www.w3.org/2000/svg">
<path d="M21 9C19.875 5.8125 17.625 0.75 15 0.75C12.375 0.75 3 10.5 3 10.5C3 10.5 11.3904 4.47019 14.25 5.25C14.9375 5.4375 15.75 11.25 15.75 11.25C17.8415 9.69544 19.5756 8.98294 21 9Z" fill="#C0C0C6"/>
<path d="M33 0.75C30.375 0.75 28.125 5.8125 27 9C28.7864 9.05494 30.5441 9.65803 32.25 11.25C32.25 11.25 33.0625 5.4375 33.75 5.25C36.6096 4.47019 45 10.5 45 10.5C45 10.5 35.625 0.75 33 0.75Z" fill="#C0C0C6"/>
<path d="M0.75 20.6152C0.75 22.584 5.94141 26.1563 8.15625 21.6563C10.5214 16.8511 14.25 16.8652 14.25 16.8652V15.3652C8.41406 15.3652 0.75 18.7402 0.75 20.6152Z" fill="#C0C0C6"/>
<path d="M39.2812 20.9062C36.7031 19.2656 34.5938 20.9062 34.5938 20.9062C35.2031 18.9375 35.3438 18.0938 34.875 16.5938C37.1541 17.4217 38.6798 19.1211 39.2812 20.9062Z" fill="#464655"/>
<path d="M8.53125 20.9062C11.1094 19.2656 13.2188 20.9062 13.2188 20.9062C12.6094 18.9375 12.4688 18.0938 12.9375 16.5938C10.6584 17.4217 9.13266 19.1211 8.53125 20.9062Z" fill="#464655"/>
<path d="M47.25 20.6152C47.5312 23.1095 42.1875 26.0626 39.5625 21.5626C36.8639 16.9364 33.75 16.8652 33.75 16.8652V15.3652C39.5859 15.3652 47.0399 18.752 47.25 20.6152Z" fill="#C0C0C6"/>
<path d="M13.5 19.8652C13.5 26.6152 18.75 40.8751 18.75 40.8751C19.5 44.2501 21.1005 46.1251 24 46.1251C26.8995 46.1251 28.5 44 29.25 40.8751C29.25 40.8751 34.5 26.7402 34.5 19.8652H13.5Z" fill="#AC8A67"/>
<path d="M25.4005 9.12554C24.9591 9.34191 24.4797 9.4501 24 9.4501C23.5204 9.4501 23.0411 9.34191 22.5996 9.12554C16.5059 6.13895 9.71122 18.7593 14.2398 20.6153C14.2398 20.6153 18.7499 21.3751 18.7499 23.6251C18.7499 25.8751 19.4999 40.8751 19.4999 40.8751H23.9999H28.4999C28.4999 40.8751 29.2499 25.8751 29.2499 23.6251C29.2499 21.3751 33.7601 20.6153 33.7601 20.6153C38.2888 18.7593 31.4941 6.13885 25.4005 9.12554Z" fill="#FFEBD2"/>
<path d="M30.8606 10.0271C29.2058 8.76562 27.2705 8.20865 25.4 9.12534C24.9586 9.34171 24.4792 9.4499 23.9996 9.4499C23.5199 9.4499 23.0406 9.34171 22.5991 9.12534C20.7287 8.20865 18.7934 8.76562 17.1386 10.0271C16.1171 16.2143 20.9997 17.7516 20.9997 21.3749C20.9997 22.8749 20.9997 33.3749 20.9997 37.1249H23.9997H26.9997C26.9997 33.3749 26.9997 22.8749 26.9997 21.3749C26.9997 17.7516 31.8823 16.2143 30.8606 10.0271Z" fill="#AC8A67"/>
<path d="M24.7698 44.6015C24.2876 44.3216 23.7116 44.3216 23.2293 44.6015C22.794 44.854 22.2902 45 21.7496 45C21.2091 45 20.7026 44.8559 20.2646 44.6058C20.4308 46.1398 22.039 47.3438 23.9996 47.3438C25.9601 47.3438 27.5683 46.1398 27.7345 44.6058C27.2965 44.8559 26.7901 45 26.2496 45C25.7089 45 25.2051 44.854 24.7698 44.6015Z" fill="#FFEBD2"/>
<path d="M26.9598 33.6446C26.543 32.3628 25.3494 31.5 24.0015 31.5H23.9986C22.6507 31.5 21.4571 32.3628 21.0402 33.6446C20.1531 36.3728 18.75 40.8668 18.75 42C18.75 43.1106 19.3539 44.0795 20.2508 44.5981C20.2554 44.6008 20.2604 44.6031 20.2651 44.6058C20.7031 44.8559 21.2095 45 21.75 45C22.2907 45 22.7945 44.854 23.2297 44.6015C23.712 44.3216 24.288 44.3216 24.7703 44.6015C25.2055 44.854 25.7093 45 26.25 45C26.7906 45 27.2969 44.8559 27.7349 44.6058C27.7396 44.6032 27.7446 44.6008 27.7492 44.5981C28.6461 44.0795 29.25 43.1106 29.25 42C29.25 40.8668 27.8469 36.3728 26.9598 33.6446Z" fill="white"/>
<path d="M23.9999 38.25C23.1692 38.25 22.4064 37.9768 21.7889 37.5173C21.1421 37.0359 20.2463 37.4604 20.25 38.2667C20.2516 38.6005 20.3 38.9464 20.4037 39.301C20.796 40.6428 21.9337 41.6933 23.3099 41.9385C25.6847 42.3616 27.7499 40.547 27.7499 38.25C27.7499 38.2287 27.7497 38.2075 27.7494 38.1864C27.7357 37.4171 26.8282 37.0578 26.2109 37.5172C25.5934 37.9768 24.8306 38.25 23.9999 38.25Z" fill="#464655"/>
<path d="M29.25 22.4902C29.25 23.3173 29.9229 23.9902 30.75 23.9902C31.5771 23.9902 32.25 23.3173 32.25 22.4902C32.25 21.6632 31.5771 20.9902 30.75 20.9902C29.9229 20.9902 29.25 21.6631 29.25 22.4902Z" fill="black"/>
<path d="M17.25 20.9902C16.4229 20.9902 15.75 21.6632 15.75 22.4902C15.75 23.3173 16.4229 23.9902 17.25 23.9902C18.0771 23.9902 18.75 23.3173 18.75 22.4902C18.75 21.6632 18.0771 20.9902 17.25 20.9902Z" fill="black"/>
<path d="M43.5079 16.9803C40.7899 15.7342 37.7028 14.9902 35.25 14.9902C35.2428 14.9902 35.2357 14.991 35.2285 14.9913C34.7 13.7212 33.9223 12.4621 32.9863 11.3846C32.9882 11.3743 32.9913 11.3644 32.9928 11.3539C33.2955 9.189 33.8061 6.62634 34.1336 5.94C34.1942 5.93363 34.2594 5.93034 34.3292 5.93034C36.8106 5.93034 42.5574 9.66863 44.5624 11.109C44.8773 11.3353 45.3128 11.2841 45.5668 10.9911C45.8207 10.698 45.8094 10.2596 45.5407 9.98006C45.517 9.9555 43.1491 7.49681 40.4899 5.07084C35.5075 0.525656 33.8291 0 33 0C30.1008 0 27.8439 4.47084 26.425 8.38078C25.9621 8.46412 25.5088 8.61206 25.0703 8.82694C24.4002 9.15534 23.5999 9.15544 22.9297 8.82694C22.4913 8.61206 22.0378 8.46403 21.5749 8.38069C20.1559 4.47075 17.8991 0 15 0C14.1709 0 12.4925 0.525656 7.51013 5.07094C4.85091 7.49691 2.48297 9.95569 2.45934 9.98016C2.19056 10.2597 2.17922 10.698 2.43319 10.9912C2.68706 11.2842 3.12272 11.3354 3.43762 11.1091C5.44247 9.66872 11.1892 5.93044 13.6708 5.93044C13.7405 5.93044 13.8058 5.93363 13.8664 5.94009C14.1939 6.62644 14.7044 9.18909 15.0072 11.354C15.0087 11.3645 15.0117 11.3744 15.0136 11.3848C14.0776 12.4623 13.2999 13.7213 12.7715 14.9914C12.7643 14.9912 12.7572 14.9902 12.75 14.9902C10.2972 14.9902 7.21013 15.7342 4.49213 16.9804C2.81447 17.7494 0 19.2931 0 20.9902C0 22.4831 1.89534 24.1893 4.056 24.6412C4.41525 24.7163 4.76316 24.7534 5.09859 24.7534C6.77437 24.7533 8.12775 23.8279 8.90381 22.1141C9.53887 21.1881 10.3714 20.8195 11.448 20.9907C11.9857 21.0761 12.4597 21.2791 12.7575 21.4306C12.9587 28.242 17.6491 41.1755 18.029 42.2123C18.4489 44.0747 19.1032 45.4483 20.0284 46.4107C21.0425 47.4652 22.3787 48 24 48C25.6441 48 27.6865 47.374 29.0456 44.7636C29.1516 44.6512 29.2169 44.5125 29.2399 44.3672C29.5217 43.7538 29.7683 43.0426 29.9686 42.2191C30.336 41.2253 35.0444 28.3606 35.2427 21.4303C35.5405 21.2789 36.0143 21.0759 36.5519 20.9906C37.6282 20.8194 38.461 21.188 39.0961 22.114C39.8722 23.828 41.2253 24.7533 42.9013 24.7533C43.2366 24.7533 43.5848 24.7162 43.9439 24.6412C46.1047 24.1893 48 22.4831 48 20.9902C48 19.2931 45.1855 17.7494 43.5079 16.9803ZM10.4219 19.486C11.0458 18.7116 11.6108 18.3364 12.0194 18.1553C12.0105 18.4307 12.0188 18.6988 12.0479 18.9564C12.0739 19.1865 12.117 19.4053 12.1747 19.6132C11.6503 19.4781 11.047 19.4039 10.4219 19.486ZM12.2601 16.5171C11.2787 16.6698 9.28837 17.4955 7.56281 21.4395C6.76678 23.2588 5.38359 23.3863 4.36303 23.1729C2.81034 22.8481 1.5 21.6011 1.5 20.9902C1.5 20.6456 2.56106 19.5158 5.11725 18.3438C7.47038 17.265 10.0997 16.592 12.2641 16.5023C12.2629 16.5071 12.2614 16.5121 12.2601 16.5171ZM33 1.5C33.3165 1.5 34.7187 1.83713 39.4737 6.17438C39.4816 6.18159 39.4892 6.18844 39.4971 6.19566C37.6251 5.21681 35.6958 4.43034 34.3292 4.43034C34.0477 4.43034 33.7864 4.46269 33.5527 4.52634C32.9572 4.68872 32.5738 5.27634 32.0062 8.17612C31.8908 8.76516 31.7896 9.34622 31.709 9.83625C30.5781 9.02728 29.3647 8.53219 28.041 8.33887C29.6566 4.09528 31.5252 1.5 33 1.5ZM14.4473 4.52644C14.2136 4.46269 13.9524 4.43044 13.6708 4.43044C12.3042 4.43044 10.3749 5.21681 8.50312 6.19547C8.50903 6.19003 8.51512 6.1845 8.52103 6.17916C13.2802 1.83741 14.6833 1.5 15 1.5C16.4752 1.5 18.3442 4.09631 19.96 8.34159C19.9032 8.35191 19.8458 8.36362 19.7885 8.37562C19.0685 8.49675 18.3414 8.76441 17.6249 9.17522C17.2 9.39291 16.7618 9.64856 16.3087 9.94453C16.2254 9.43303 16.1177 8.80922 15.9938 8.17622C15.4262 5.27644 15.0428 4.68881 14.4473 4.52644ZM24 46.5C22.998 46.5 22.1723 46.25 21.4974 45.7269C21.5141 45.7271 21.5309 45.7278 21.5475 45.7278C22.5862 45.7278 23.4974 45.3595 24 45.1073C24.4948 45.3557 25.3861 45.716 26.4051 45.727C25.7345 46.2442 24.9349 46.5 24 46.5ZM23.2559 41.1598C22.2489 40.9093 21.4232 40.1152 21.1235 39.0905C21.0428 38.8146 21.0012 38.5362 21 38.2631C20.9997 38.2014 21.0162 38.1548 21.0503 38.1204C21.0854 38.0853 21.1382 38.0642 21.1913 38.0642C21.2421 38.0642 21.2924 38.0826 21.3412 38.1188C22.1157 38.6953 23.0351 39 24 39C24.9649 39 25.8843 38.6953 26.6587 38.1188C26.7079 38.0823 26.7623 38.0637 26.8202 38.0637C26.8383 38.0637 26.9972 38.0676 26.9995 38.1994L27 38.25C27 39.6476 26.0393 40.8249 24.7436 41.1566C24.6975 40.7866 24.3825 40.5 24 40.5C23.6164 40.5 23.3005 40.7882 23.2559 41.1598ZM34.4616 18.7882C34.3736 19.5671 34.0512 20.0603 33.4758 20.2961C33.0925 20.4532 32.9092 20.8912 33.0662 21.2745C33.1809 21.5545 33.4459 21.7262 33.7297 21.738C33.3849 28.6386 28.5971 41.6038 28.547 41.7389C28.5366 41.767 28.5278 41.7958 28.5207 41.825C28.3414 42.5722 28.1208 43.227 27.8587 43.7929C26.7107 44.5801 25.3694 44.1062 24.75 43.8066V42.6863C26.8754 42.328 28.5 40.4756 28.5 38.2499C28.5 38.2243 28.4998 38.1987 28.4993 38.1729C28.4832 37.2706 27.7457 36.5636 26.8202 36.5636C26.438 36.5636 26.0724 36.6852 25.7633 36.9154C25.2495 37.2979 24.6397 37.5 24 37.5C23.3603 37.5 22.7505 37.2979 22.2368 36.9155C21.9279 36.6856 21.5664 36.5641 21.1914 36.5641C20.7413 36.5641 20.3024 36.7457 19.9873 37.0622C19.6709 37.38 19.4979 37.809 19.5001 38.2701C19.5021 38.6833 19.5638 39.1009 19.6838 39.5114C20.1603 41.1409 21.5319 42.3833 23.1784 42.6768C23.2022 42.681 23.2262 42.6841 23.25 42.6879V43.8056C22.6192 44.1083 21.2301 44.5955 20.0722 43.7441C19.8388 43.1959 19.6432 42.5621 19.4822 41.8373C19.4749 41.8046 19.4654 41.7724 19.4539 41.7409C19.4037 41.6047 14.6213 28.5436 14.2711 21.7389C14.5547 21.727 14.8192 21.5544 14.9339 21.2745C15.091 20.8912 14.9077 20.4532 14.5243 20.2961C13.9489 20.0603 13.6264 19.567 13.5385 18.7882C13.2945 16.6265 15.0782 12.7599 17.8304 10.821C17.9755 10.7188 18.1312 10.6173 18.2956 10.52C18.9578 10.1801 19.5727 9.95194 20.1368 9.83756C20.8085 9.74156 21.5324 9.81263 22.2696 10.1739C23.3531 10.705 24.6469 10.7049 25.7305 10.1739C27.4466 9.333 29.0917 10.0616 30.1697 10.821C32.9219 12.7599 34.7055 16.6265 34.4616 18.7882ZM35.8253 19.6132C35.883 19.4053 35.9261 19.1865 35.9522 18.9563C35.9812 18.6987 35.9895 18.4307 35.9807 18.1553C36.3893 18.3366 36.9541 18.7118 37.578 19.4859C36.953 19.404 36.3496 19.4782 35.8253 19.6132ZM43.6369 23.1729C42.6162 23.3863 41.233 23.2588 40.4371 21.4395C38.7116 17.4956 36.7213 16.6699 35.7398 16.5171C35.7386 16.5121 35.7371 16.5071 35.7359 16.5022C37.9001 16.5921 40.5298 17.265 42.8827 18.3437C45.4389 19.5157 46.5 20.6456 46.5 20.9902C46.5 21.6011 45.1897 22.8481 43.6369 23.1729Z" fill="black"/>
</svg>
