<svg width="49" height="52" viewBox="0 0 49 52" fill="none" xmlns="http://www.w3.org/2000/svg">
<path d="M31.7324 46.3125C31.7324 49.0049 29.8047 51.1875 24.4199 51.1875C19.0351 51.1875 17.1074 49.0049 17.1074 46.3125" fill="#FFEBD2"/>
<path d="M44.6856 0.8125C41.8119 0.8125 39.3883 6.58907 35.6286 7.24618C32.8086 5.77017 29.1559 4.875 24.4197 4.875C19.6796 4.875 16.0245 5.7717 13.2036 7.25004C9.4218 6.62584 6.9908 0.8125 4.10723 0.8125C0.755672 0.8125 -0.869327 7.51562 3.29473 9.75C5.4763 10.9206 7.10932 11.0385 8.06289 11.5834C7.10272 12.9854 6.32465 14.6315 5.71974 16.3804C4.52516 18.8124 3.85749 21.5203 3.85749 24.375C3.85749 34.9201 12.9517 43.4688 24.17 43.4688C34.8058 43.4688 43.5311 35.7844 44.4085 26H44.7322C44.7322 21.327 43.964 15.7961 40.7627 11.5647C41.7208 11.0356 43.3414 10.9073 45.498 9.75C49.6622 7.51562 48.0372 0.8125 44.6856 0.8125Z" fill="#FFA54B"/>
<path d="M12.6929 7.10915C10.1031 6.75369 6.39838 -0.520425 2.94292 1.0154C2.48588 1.21853 0.211494 3.50125 1.01516 6.65029C1.81872 9.79934 4.16167 10.2068 8.06248 11.5832L12.6929 7.10915Z" fill="#FF8C46"/>
<path d="M36.0859 7.10425C38.6758 6.74878 42.3805 -0.52523 45.8359 1.0105C46.293 1.21362 48.5674 3.49634 47.7637 6.64539C46.96 9.79443 44.6172 10.2019 40.7164 11.5782L36.0859 7.10425Z" fill="#FF8C46"/>
<path d="M4.73355 19.3308C1.39916 24.7811 0.857422 29.2498 0.857422 29.2498H2.48242C2.48242 29.2498 0.857422 33.2615 0.857422 35.7498L3.29492 34.9373C3.29492 34.9373 1.66992 38.5936 1.66992 41.4373C1.66992 41.4881 4.10742 40.6248 4.10742 40.6248C4.10742 40.6248 2.88867 43.367 3.29492 44.6873C3.30985 44.7359 5.73242 43.8748 5.73242 43.8748C5.73242 43.8748 5.02148 45.7707 5.73242 47.1248L9.79492 45.4998C9.79492 45.4998 10.5544 47.9859 10.6074 47.9373C12.3848 46.3123 14.6699 45.4998 14.6699 45.4998" fill="#FFEBD2"/>
<path d="M44.1063 19.3308C47.4408 24.7811 47.9824 29.2498 47.9824 29.2498H46.3574C46.3574 29.2498 47.9824 33.2615 47.9824 35.7498L45.5449 34.9373C45.5449 34.9373 47.1699 38.5936 47.1699 41.4373C47.1699 41.4881 44.7324 40.6248 44.7324 40.6248C44.7324 40.6248 45.9512 43.367 45.5449 44.6873C45.53 44.7359 43.1074 43.8748 43.1074 43.8748C43.1074 43.8748 43.8184 45.7707 43.1074 47.1248L39.0449 45.4998C39.0449 45.4998 38.2854 47.9859 38.2324 47.9373C36.4551 46.3123 34.1699 45.4998 34.1699 45.4998" fill="#FFEBD2"/>
<path d="M18.1143 26C15.039 30.3749 12.2324 36.3119 12.2324 40.2188C12.2324 43.5842 14.9607 46.3125 18.3262 46.3125C19.4772 46.3125 23.31 46.1665 24.4199 44.6875C25.5298 46.1665 29.1595 46.3125 30.5137 46.3125C33.8791 46.3125 36.6074 43.5842 36.6074 40.2188C36.6074 36.3443 33.7917 30.3888 30.7104 26" fill="#FF8C46"/>
<path d="M29.2448 36.3594C27.3675 36.3594 25.6771 36.9402 24.4746 37.8683C23.272 36.9402 21.5817 36.3594 19.7044 36.3594C16.0566 36.3594 13.0996 38.5421 13.0996 41.2344C13.0996 43.9268 16.0567 46.1094 19.7044 46.1094C21.2269 46.1094 22.6265 45.7273 23.7426 45.0878C24.2038 44.8235 24.7453 44.8235 25.2065 45.0878C26.3225 45.7273 27.7222 46.1094 29.2447 46.1094C32.8924 46.1094 35.8495 43.9268 35.8495 41.2344C35.8496 38.5421 32.8925 36.3594 29.2448 36.3594Z" fill="#FFDEB7"/>
<path d="M26.5596 41.241C25.232 42.5038 23.5562 42.5292 22.2793 41.241L20.8721 39.7963C19.695 38.451 20.1945 37.3503 21.982 37.3503H26.857C28.6445 37.3503 29.144 38.451 27.9669 39.7963L26.5596 41.241Z" fill="#464655"/>
<path d="M18.4122 21.765C17.1922 20.1561 14.609 20.0606 12.6425 21.5517C10.6761 23.0429 10.0709 25.556 11.291 27.1649C12.511 28.7738 15.0941 28.8693 17.0606 27.3782C19.0271 25.887 19.6322 23.3739 18.4122 21.765Z" fill="#FFEBD2"/>
<path d="M30.5379 21.766C29.3179 23.3749 29.923 25.888 31.8895 27.3792C33.8559 28.8703 36.4391 28.7748 37.6591 27.1659C38.8791 25.557 38.274 23.0439 36.3075 21.5527C34.3411 20.0616 31.7579 20.1571 30.5379 21.766Z" fill="#FFEBD2"/>
<path d="M14.6699 22.75C13.7739 22.75 13.0449 23.479 13.0449 24.375C13.0449 25.2711 13.7739 26 14.6699 26C15.5659 26 16.2949 25.2711 16.2949 24.375C16.2949 23.479 15.5659 22.75 14.6699 22.75Z" fill="black"/>
<path d="M34.1699 22.75C33.2739 22.75 32.5449 23.479 32.5449 24.375C32.5449 25.2711 33.2739 26 34.1699 26C35.0659 26 35.7949 25.2711 35.7949 24.375C35.7949 23.479 35.0659 22.75 34.1699 22.75Z" fill="black"/>
<path d="M47.5278 30.0625H47.9818C48.2144 30.0625 48.4358 29.9629 48.5899 29.7889C48.7442 29.6149 48.8164 29.3831 48.7884 29.1522C48.7655 28.9639 48.1939 24.5049 44.8665 19.0187C44.2869 16.2992 43.3369 13.9331 42.0219 11.9401C42.169 11.8941 42.3249 11.8477 42.4875 11.7993C43.3981 11.5282 44.5313 11.1908 45.8818 10.466C48.5634 9.02718 49.1736 6.03474 48.5886 3.70754C48.0226 1.45529 46.4903 0 44.6852 0C42.929 0 41.5028 1.51765 39.9928 3.12437C38.664 4.53842 37.2922 5.99818 35.7419 6.39143C32.6636 4.84595 28.8561 4.0625 24.4193 4.0625C19.9769 4.0625 16.1654 4.84778 13.0852 6.39712C11.5207 6.01707 10.1384 4.54705 8.79953 3.12305C7.28939 1.51704 5.86295 0 4.10683 0C2.30176 0 0.769489 1.45529 0.20338 3.70744C-0.38162 6.03474 0.228568 9.02708 2.91012 10.4659C4.2605 11.1905 5.39353 11.5281 6.30404 11.7992C6.50086 11.8578 6.68357 11.9123 6.85156 11.9656C5.60935 14.0259 4.74444 16.3906 4.17843 18.738C4.12613 18.7869 4.079 18.8429 4.0398 18.907C0.652083 24.4443 0.0731766 28.9626 0.0502235 29.1522C0.0222938 29.383 0.0945048 29.6148 0.248677 29.7889C0.40295 29.9629 0.624255 30.0625 0.856731 30.0625H1.31072C0.81113 31.4791 0.0442313 33.9473 0.0442313 35.75C0.0442313 36.0111 0.169763 36.2564 0.381622 36.4092C0.593583 36.5619 0.865974 36.6034 1.11368 36.5209L1.91329 36.2543C1.43259 37.6369 0.856833 39.663 0.856833 41.4375C0.856833 41.7014 0.985716 41.95 1.20113 42.1022C1.54959 42.3485 1.85641 42.2489 2.32086 42.0984C2.44111 42.0595 2.58675 42.011 2.75656 41.9536C2.4732 42.9154 2.25799 44.0821 2.51799 44.9272C2.58329 45.1387 2.7332 45.3158 2.93104 45.415C3.24985 45.575 3.49918 45.494 3.95205 45.3475C4.12623 45.2912 4.35302 45.2151 4.62805 45.121C4.55645 45.8483 4.60358 46.7241 5.01236 47.5027C5.20584 47.8714 5.64672 48.0341 6.03358 47.8794L9.27911 46.5812C9.3175 46.7035 9.35792 46.8312 9.39854 46.9587C9.5129 47.3174 9.60756 47.6052 9.67987 47.8143C9.83191 48.2546 9.95196 48.6022 10.3902 48.722C10.4606 48.7412 10.5325 48.7506 10.604 48.7506C10.8053 48.7506 11.0032 48.6761 11.1551 48.5372C12.7831 47.0486 14.9209 46.273 14.9415 46.2656C14.9519 46.2618 14.9615 46.2571 14.9717 46.2531C15.3951 46.4893 15.8454 46.6826 16.3174 46.8264C16.4414 48.2979 17.1022 49.5284 18.2505 50.4055C19.6359 51.4634 21.7115 52 24.4193 52C27.1273 52 29.2027 51.4634 30.588 50.4054C31.7364 49.5283 32.3972 48.2979 32.5212 46.8263C32.9931 46.6825 33.4435 46.4893 33.8669 46.253C33.8768 46.2569 33.8862 46.2615 33.8963 46.2653C33.9178 46.2729 36.0556 47.0485 37.6837 48.5372C37.8355 48.676 38.0334 48.7505 38.2347 48.7505C38.3062 48.7505 38.3782 48.7411 38.4487 48.7219C38.8867 48.602 39.0068 48.2544 39.1588 47.8142C39.231 47.6051 39.3257 47.3173 39.44 46.9586C39.4806 46.8312 39.5211 46.7034 39.5596 46.5812L42.8051 47.8794C43.1918 48.0342 43.6326 47.8714 43.8262 47.5027C44.235 46.724 44.2821 45.8482 44.2105 45.121C44.4856 45.2151 44.7124 45.2912 44.8866 45.3475C45.3396 45.4941 45.5891 45.5749 45.9079 45.4148C46.1059 45.3154 46.2558 45.1382 46.3209 44.9265C46.5809 44.0818 46.3656 42.9153 46.0822 41.9536C46.252 42.011 46.3977 42.0595 46.5178 42.0984C46.9823 42.2489 47.2893 42.3484 47.6375 42.1022C47.8531 41.95 47.9818 41.7014 47.9818 41.4375C47.9818 39.663 47.4061 37.6369 46.9253 36.2543L47.725 36.5209C47.9726 36.6034 48.245 36.5619 48.4569 36.4092C48.6688 36.2565 48.7943 36.0112 48.7943 35.75C48.7943 33.9473 48.0274 31.4791 47.5278 30.0625ZM24.4193 50.375C21.7081 50.375 18.5224 49.7845 17.9964 47.1167C18.1055 47.1219 18.2152 47.125 18.3256 47.125C19.701 47.125 22.7635 46.9824 24.4163 45.8C25.982 46.9371 28.814 47.125 30.5131 47.125C30.6235 47.125 30.7332 47.1219 30.8423 47.1167C30.3163 49.7845 27.1306 50.375 24.4193 50.375ZM22.8613 40.6742L21.4701 39.2459C21.0757 38.7898 21.0197 38.4827 21.0552 38.4048C21.0909 38.3259 21.3645 38.1631 21.9818 38.1631H26.8568C27.4742 38.1631 27.7478 38.326 27.7836 38.4048C27.819 38.4828 27.7631 38.7899 27.3687 39.2459L25.9889 40.6626C24.9729 41.6212 23.8028 41.624 22.8613 40.6742ZM45.8013 34.1667C45.4958 34.0649 45.1592 34.153 44.9428 34.3914C44.7263 34.6298 44.6711 34.9734 44.8018 35.2675C44.8152 35.2976 45.9598 37.8956 46.2765 40.3033C45.8835 40.1687 45.4297 40.0102 45.0031 39.8591C44.6969 39.7506 44.3558 39.8349 44.1355 40.0732C43.915 40.3116 43.8576 40.6583 43.9894 40.9549C44.3112 41.6787 44.6766 42.7713 44.7855 43.6002C44.3643 43.4563 43.8543 43.2782 43.379 43.1093C43.0809 43.0035 42.749 43.08 42.5274 43.3055C42.3058 43.5309 42.2351 43.8642 42.3461 44.1603C42.4595 44.4626 42.6746 45.2917 42.5891 46.0427L39.3462 44.7457C39.1351 44.6612 38.8984 44.6691 38.6932 44.7673C38.4882 44.8655 38.3337 45.0452 38.2674 45.2626C38.134 45.699 37.9852 46.1749 37.8547 46.5814C36.9444 45.9126 36.0247 45.4287 35.369 45.124C36.6342 43.8715 37.4193 42.1353 37.4193 40.2188C37.4193 39.9891 37.4087 39.7526 37.391 39.5116C40.4512 37.8713 43.3218 34.5785 44.6282 31.1655C44.7887 30.7464 44.5791 30.2766 44.1599 30.1161C43.741 29.9557 43.2712 30.1653 43.1107 30.5844C42.0271 33.4151 39.6542 36.2427 37.1413 37.7819C36.3269 33.8517 33.8425 29.0479 31.3748 25.5331C31.117 25.1659 30.6102 25.0772 30.2429 25.335C29.8757 25.5928 29.787 26.0995 30.0449 26.4669C32.814 30.4111 35.7942 36.3969 35.7942 40.2188C35.7942 43.1309 33.4251 45.5 30.513 45.5C28.0051 45.5 25.9913 45.0641 25.2317 44.3749V42.9061C25.8921 42.7416 26.5373 42.3834 27.1194 41.8297C27.1269 41.8226 27.1342 41.8153 27.1414 41.808L28.5487 40.3633C28.5588 40.3529 28.5686 40.3422 28.5781 40.3315C29.6462 39.1106 29.4658 38.1796 29.2633 37.7332C29.0607 37.2868 28.4787 36.5379 26.8567 36.5379H21.9817C20.3598 36.5379 19.7778 37.2868 19.5753 37.7331C19.3728 38.1796 19.1923 39.1106 20.2604 40.3314C20.27 40.3421 20.2797 40.3528 20.2899 40.3632L21.702 41.8129C22.2756 42.3915 22.9284 42.7595 23.6067 42.9191V44.3741C22.746 45.1461 20.3321 45.4999 18.3255 45.4999C15.4134 45.4999 13.0442 43.1307 13.0442 40.2186C13.0442 36.3542 15.9241 30.5275 18.7783 26.4673C19.0364 26.1001 18.9481 25.5933 18.5809 25.3353C18.2141 25.0772 17.7071 25.1656 17.4489 25.5327C14.9841 29.0392 12.5025 33.8446 11.6936 37.788C9.13956 36.2501 6.72643 33.4168 5.6259 30.581C5.46361 30.1626 4.99286 29.955 4.57453 30.1174C4.15619 30.2798 3.9486 30.7505 4.111 31.1689C5.43568 34.5826 8.34564 37.8758 11.4471 39.5147C11.4298 39.7544 11.4192 39.9899 11.4192 40.2188C11.4192 42.1353 12.2045 43.8716 13.4697 45.124C12.814 45.4287 11.8943 45.9126 10.984 46.5814C10.8535 46.1749 10.7046 45.699 10.5714 45.2625C10.505 45.0451 10.3504 44.8655 10.1454 44.7673C9.94048 44.6691 9.70354 44.6613 9.49259 44.7457L6.24889 46.0432C6.16358 45.3015 6.373 44.4848 6.49264 44.1603C6.60365 43.8643 6.53286 43.5309 6.31135 43.3055C6.08964 43.08 5.75753 43.0034 5.45975 43.1093C4.98474 43.2781 4.4751 43.4561 4.05392 43.5999C4.1634 42.7718 4.52832 41.6792 4.84925 40.9549C4.98118 40.6583 4.9237 40.3116 4.70321 40.0732C4.48272 39.8348 4.14157 39.7506 3.83546 39.8591C3.4091 40.0101 2.95532 40.1685 2.56237 40.3033C2.87945 37.8991 4.02345 35.2974 4.03675 35.2675C4.16747 34.9734 4.11222 34.6298 3.89579 34.3914C3.67936 34.153 3.34258 34.065 3.03738 34.1667L1.76947 34.5894C2.11275 32.3475 3.22172 29.5876 3.23502 29.5549C3.33628 29.3044 3.30652 29.0199 3.1556 28.7959C3.00447 28.5719 2.75199 28.4375 2.48183 28.4375H1.83051C2.04186 27.4604 2.49311 25.7634 3.39133 23.6782C3.32572 24.4935 3.29433 25.2737 3.29433 26C3.29433 26.4487 3.65813 26.8125 4.10683 26.8125C4.55564 26.8125 4.91933 26.4487 4.91933 26C4.91933 20.9038 6.41626 15.4251 8.7329 12.0426C8.86118 11.8553 8.90515 11.623 8.85447 11.4017C8.80369 11.1805 8.66272 10.9906 8.46569 10.878C7.98916 10.6056 7.42325 10.4371 6.76807 10.2419C5.92815 9.99172 4.88297 9.68033 3.67854 9.03398C1.76815 8.00891 1.34819 5.81902 1.77943 4.10353C2.0894 2.86985 2.92942 1.625 4.10683 1.625C5.16044 1.625 6.35299 2.89341 7.61572 4.23617C8.66404 5.35123 9.80896 6.56855 11.1433 7.33687C10.3998 7.57087 9.74843 7.5858 9.21868 7.37161C8.80247 7.20352 8.32909 7.40452 8.1609 7.82041C7.99272 8.23641 8.19361 8.71 8.60961 8.87819C8.98366 9.02931 9.45999 9.1453 10.042 9.1453C10.9603 9.1453 12.1414 8.85584 13.5955 7.96189C16.4828 6.45287 20.1242 5.6875 24.4193 5.6875C28.7184 5.6875 32.3627 6.45409 35.2513 7.96605C35.3315 8.008 35.4176 8.03583 35.5059 8.04923C36.8936 8.87433 38.0268 9.1454 38.9142 9.1454C39.4961 9.1454 39.9728 9.02941 40.3467 8.87829C40.7627 8.7101 40.9636 8.23652 40.7954 7.82052C40.6273 7.40441 40.1538 7.20363 39.7376 7.37171C39.1833 7.59596 38.4963 7.57087 37.7092 7.30437C39.0181 6.53392 40.1446 5.33559 41.1768 4.23719C42.4394 2.89382 43.6318 1.625 44.6852 1.625C45.8626 1.625 46.7026 2.86985 47.0126 4.10353C47.4439 5.81912 47.0238 8.00902 45.1135 9.03398C43.909 9.68043 42.8637 9.99162 42.0238 10.2418C41.3869 10.4315 40.8368 10.5952 40.3695 10.8534C40.1631 10.9673 40.0165 11.1653 39.9675 11.3958C39.9186 11.6264 39.9721 11.8669 40.1143 12.0548C42.6391 15.392 43.9193 20.0839 43.9193 25.9999C43.9193 26.4486 44.2831 26.8124 44.7318 26.8124C45.1806 26.8124 45.5443 26.4486 45.5443 25.9999C45.5443 25.235 45.5231 24.4892 45.4819 23.7618C46.3537 25.8055 46.7967 27.4719 47.0067 28.4374H46.3569C46.0868 28.4374 45.8343 28.5718 45.6833 28.7958C45.5322 29.0199 45.5025 29.3043 45.6038 29.5548C45.617 29.5875 46.7261 32.3474 47.0694 34.5893L45.8013 34.1667Z" fill="black"/>
<path d="M15.4832 10.5957C15.5977 10.5957 15.7141 10.5712 15.8249 10.5197C17.9894 9.51427 21.1223 8.9375 24.4201 8.9375C27.7179 8.9375 30.8507 9.51427 33.0153 10.5198C33.4225 10.7089 33.9055 10.5323 34.0945 10.1253C34.2835 9.71821 34.1069 9.23518 33.6999 9.04607C31.3283 7.94442 27.9461 7.3125 24.4201 7.3125C20.8941 7.3125 17.5118 7.94442 15.1403 9.04607C14.7333 9.23518 14.5567 9.71831 14.7457 10.1252C14.8832 10.4214 15.1767 10.5957 15.4832 10.5957Z" fill="black"/>
<path d="M32.9149 12.3094C30.7424 11.1992 27.6461 10.5625 24.4201 10.5625C21.1942 10.5625 18.0979 11.1993 15.9254 12.3094C15.5258 12.5136 15.3674 13.0031 15.5716 13.4027C15.7153 13.6839 16.0003 13.8457 16.2958 13.8457C16.4202 13.8457 16.5466 13.817 16.6649 13.7564C18.6161 12.7594 21.4428 12.1875 24.4202 12.1875C27.3976 12.1875 30.2243 12.7594 32.1755 13.7564C32.5751 13.9606 33.0646 13.8022 33.2687 13.4027C33.473 13.0031 33.3145 12.5136 32.9149 12.3094Z" fill="black"/>
<path d="M32.1337 15.5763C30.1594 14.4554 27.348 13.8125 24.42 13.8125C21.4922 13.8125 18.6807 14.4554 16.7064 15.5763C16.3162 15.7979 16.1795 16.2939 16.401 16.6841C16.6227 17.0743 17.1185 17.211 17.5087 16.9895C19.2457 16.0032 21.7649 15.4375 24.42 15.4375C27.0753 15.4375 29.5943 16.0032 31.3314 16.9895C31.4581 17.0614 31.5958 17.0955 31.7318 17.0955C32.0146 17.0955 32.2894 16.9475 32.4391 16.6841C32.6606 16.2939 32.5239 15.7979 32.1337 15.5763Z" fill="black"/>
<path d="M8.16783 25.2121C8.18154 24.7636 7.82891 24.3889 7.38031 24.3753C6.93262 24.3629 6.55725 24.7143 6.54364 25.1628C6.43517 28.7451 7.3862 30.6267 8.28625 32.1092C8.4391 32.361 8.70702 32.5001 8.98155 32.5001C9.12516 32.5001 9.27069 32.462 9.40252 32.382C9.78602 32.1492 9.9082 31.6494 9.67542 31.2658C8.86038 29.9236 8.07276 28.3507 8.16783 25.2121Z" fill="black"/>
<path d="M41.4482 24.3753C40.9997 24.389 40.6471 24.7636 40.6607 25.2121C40.7558 28.3506 39.9681 29.9236 39.1533 31.2657C38.9204 31.6494 39.0425 32.1491 39.4262 32.3819C39.5579 32.462 39.7033 32.5 39.8471 32.5C40.1216 32.5 40.3895 32.3609 40.5424 32.1091C41.4424 30.6266 42.3936 28.7451 42.285 25.1628C42.2713 24.7143 41.8961 24.3624 41.4482 24.3753Z" fill="black"/>
<path d="M11.5095 18.9167C10.6345 17.6585 9.31218 15.7573 9.70482 14.9982C9.91089 14.5997 9.75489 14.1094 9.35636 13.9033C8.95773 13.6971 8.46759 13.8531 8.26142 14.2516C7.41875 15.8808 8.88328 17.9865 10.1754 19.8444C10.6631 20.5455 11.3998 21.6048 11.4206 21.9394C11.4218 22.3872 11.7851 22.7498 12.2331 22.7498C12.6819 22.7498 13.0456 22.386 13.0456 21.9373C13.0456 21.1256 12.3677 20.1508 11.5095 18.9167Z" fill="black"/>
<path d="M40.4229 14.2517C40.2167 13.8531 39.7266 13.697 39.3279 13.9033C38.9293 14.1095 38.7733 14.5996 38.9795 14.9982C39.3721 15.7572 38.0498 17.6586 37.1748 18.9167C36.3166 20.1508 35.6387 21.1257 35.6387 21.9375C35.6387 22.3862 36.0025 22.7516 36.4512 22.7516C36.8999 22.7516 37.2637 22.3894 37.2637 21.9407C37.2831 21.6071 38.0208 20.5464 38.5089 19.8445C39.801 17.9865 41.2655 15.8807 40.4229 14.2517Z" fill="black"/>
</svg>
