<svg width="13" height="24" viewBox="0 0 13 24" fill="none" xmlns="http://www.w3.org/2000/svg">
<path d="M1.96169 21.6066C1.96169 21.0263 2.03167 20.395 1.94209 19.8214C1.78928 18.8431 1.298 17.9491 1.01202 17.0097C0.723398 16.0618 0.472088 15.0175 0.491324 14.0196C0.513995 12.845 0.821761 11.7077 1.37177 10.6724C2.34434 8.84165 4.33771 7.77863 6.38 8.15592C6.73798 8.22206 7.08707 8.34212 7.45093 8.37644C7.60481 8.3909 7.78556 8.32369 7.73174 8.13022C7.68724 7.97022 7.50163 7.89881 7.36185 7.84713C7.00178 7.71405 6.62524 7.64501 6.24611 7.59292C4.60223 7.36714 2.87338 7.90894 1.74613 9.15495C-0.0965791 11.1918 -0.338426 14.1844 0.36181 16.742C0.678634 17.8992 1.40025 19.0502 1.42372 20.2677C1.44323 21.2789 0.960247 22.2427 0.522476 23.124C0.446651 23.2767 0.0805098 23.874 0.369218 23.9872C0.50623 24.0409 0.66163 23.9137 0.75495 23.8296C1.02402 23.5871 1.23432 23.2642 1.47076 22.9901C2.43079 21.8772 3.60075 20.9407 4.77334 20.0612C5.32112 19.6504 5.86743 19.2375 6.42463 18.8395C6.90618 18.4956 7.37935 18.1402 7.85277 17.7851C9.01091 16.9165 10.1427 16.0712 11.0266 14.9122C11.4416 14.3681 11.8261 13.7573 11.981 13.0823C12.0809 12.6472 12.082 12.2276 12.0519 11.7881C12.031 11.4827 12.0249 11.1961 11.9529 10.8955C11.8489 10.4617 11.7151 10.0358 11.4933 9.64588C11.1677 9.07346 10.752 8.57642 10.2628 8.13611C8.98855 6.98926 7.28817 6.73956 5.79982 5.99729C4.99386 5.59535 4.23087 5.05935 4.06302 4.11183C3.9385 3.40905 3.99192 2.60389 4.34102 1.96961C5.03893 0.701645 6.69143 0.105886 7.98666 0.828883C8.95985 1.37211 9.58337 2.4588 9.78916 3.53164C9.86413 3.92251 9.74377 4.5246 9.94982 4.86584C10.1172 5.14303 10.5751 5.16713 10.8429 5.30897C11.1977 5.49681 11.3196 5.80025 11.4231 6.16478L11.3785 6.20941C10.736 6.04316 10.0272 6.02674 9.37018 6.10743C9.07589 6.14358 8.79138 6.16358 8.52222 6.29867C8.73211 6.539 9.06812 6.5469 9.37018 6.56756C9.88538 6.60273 10.4238 6.57238 10.9322 6.66958C11.1809 6.71711 11.5624 6.95731 11.8146 6.85127C11.9959 6.77504 11.9619 6.5016 11.958 6.3433C11.9453 5.816 11.777 5.26911 11.3338 4.95037C11.093 4.77712 10.6489 4.73338 10.4999 4.46417C10.3251 4.14838 10.3577 3.65991 10.2784 3.3085C10.0859 2.45625 9.76287 1.62632 9.14529 0.987942C7.92976 -0.268555 5.74278 -0.3438 4.46268 0.861507C3.94373 1.35011 3.60784 2.074 3.49868 2.77294C3.43749 3.16461 3.4653 3.54191 3.47958 3.93331C3.4873 4.14561 3.53238 4.35278 3.58522 4.55812C4.05829 6.39565 6.34082 6.78611 7.85277 7.39673C8.26337 7.56257 8.66949 7.75051 9.05777 7.96388C9.80759 8.3759 10.4372 9.01009 10.8847 9.73514C11.5182 10.7615 11.758 12.0665 11.3474 13.2162C11.0738 13.982 10.5186 14.7007 9.95036 15.2692C8.78366 16.4363 7.44236 17.385 6.11223 18.3554C4.69055 19.3925 3.28821 20.4486 1.96169 21.6066Z" fill="#C92A2A"/>
<path d="M8.5227 3.3022C7.93382 3.52914 8.32584 4.36643 8.8742 4.11754C9.29042 3.92862 8.98265 3.12498 8.5227 3.3022Z" fill="#C92A2A"/>
</svg>
