<svg width="100" height="86" viewBox="0 0 100 86" fill="none" xmlns="http://www.w3.org/2000/svg">
<path fill-rule="evenodd" clip-rule="evenodd" d="M36.1501 47.0558C32.3999 47.9867 35.4356 53.6983 31.8383 55.3109C28.5344 56.792 26.4215 60.26 23.0969 62.1153C18.6887 64.5752 14.5297 65.3662 10.2348 68.5912C8.14257 70.1622 1.5257 69.2201 1.32715 71.849C11.5211 70.2661 16.9678 74.7409 23.2433 75.5783C28.7813 76.3174 32.9682 76.013 37.6536 74.2179C53.9199 67.9856 47.1106 53.9581 47.0472 49.6908C43.8389 49.0944 39.2537 46.2854 36.1501 47.0558Z" fill="#0C7A31"/>
<path d="M82.7215 58.2375C82.5381 58.6959 82.4906 59.0738 82.5506 59.3914C82.6107 59.7091 82.7763 59.9688 82.9967 60.2151C83.2172 60.4614 83.4896 60.6983 83.7813 60.9427C84.073 61.1871 84.3863 61.4344 84.7111 61.6713C85.036 61.9082 85.3618 62.1014 85.6783 62.2448C85.9948 62.3881 86.301 62.4844 86.58 62.5201C86.8591 62.5559 87.1108 62.5298 87.3194 62.4165C87.528 62.3032 87.6929 62.1022 87.8026 61.7929C87.9124 61.4835 87.914 61.2167 87.8252 60.9933C87.7364 60.7699 87.5571 60.5912 87.3216 60.4371C87.086 60.283 86.7955 60.1533 86.4926 59.9984C86.1897 59.8435 85.8764 59.659 85.5793 59.3987C85.2823 59.1385 85.0314 58.784 84.7885 58.4477C84.5456 58.1114 84.3058 57.7999 84.0602 57.6079C83.8146 57.416 83.5669 57.3421 83.3389 57.4337C83.1108 57.5253 82.5378 58.6957 82.7215 58.2375Z" fill="#E1D6B9"/>
<path d="M84.0796 57.3196C84.3289 57.4748 84.577 57.7259 84.8249 58.0172C85.1082 58.3501 85.3932 58.7308 85.7337 59.0314C86.0743 59.3321 86.4295 59.5529 86.7735 59.7452C87.1175 59.9374 87.4469 60.1076 87.7126 60.3094C87.9784 60.5112 88.179 60.7447 88.2801 61.0206C88.3811 61.2966 88.3836 61.6125 88.2706 61.9587C88.1577 62.3048 87.9669 62.5433 87.7191 62.6869C87.4712 62.8305 87.1668 62.8802 86.8297 62.8586C86.4926 62.837 86.1232 62.7458 85.7449 62.5966C85.3666 62.4474 84.9807 62.2372 84.6016 61.9688C84.2226 61.7004 83.8739 61.4247 83.557 61.1575C83.24 60.8903 82.9534 60.6346 82.7293 60.3644C82.644 60.2616 82.5687 60.1557 82.5045 60.0455C82.3751 59.8228 82.6163 59.324 82.6978 59.5782C82.7733 59.8136 82.9086 60.0186 83.0813 60.2138C83.2916 60.4517 83.5523 60.6804 83.8318 60.9161C84.1114 61.1518 84.4122 61.3901 84.7239 61.6184C85.0356 61.8467 85.348 62.0331 85.6514 62.1716C85.9549 62.3101 86.2484 62.4031 86.5158 62.438C86.7832 62.4728 87.0245 62.448 87.2243 62.3396C87.424 62.2311 87.5817 62.0387 87.6866 61.7418C87.7916 61.445 87.793 61.1885 87.7082 60.9735C87.6233 60.7584 87.4523 60.5859 87.2274 60.4368C87.0025 60.2877 86.7249 60.1616 86.435 60.0116C86.145 59.8616 85.8444 59.6835 85.5586 59.4332C85.2728 59.1829 85.0305 58.8427 84.7972 58.5192C84.5638 58.1957 84.335 57.8954 84.1013 57.7093C84.0721 57.6861 84.0428 57.6644 84.0136 57.6448C83.9385 57.5943 83.8643 57.5537 83.7893 57.5321C83.7027 57.5073 83.7586 57.1346 83.9729 57.2589C84.0077 57.2791 84.0588 57.3567 84.0796 57.3196Z" fill="#394655"/>
<path d="M69.0508 75.2778C69.8033 76.7078 69.5264 78.3538 69.6675 79.5758C69.8086 80.7979 70.3638 81.5886 70.803 82.2028C71.2423 82.817 71.6272 83.2215 72.0208 83.3511C72.4144 83.4808 72.8096 83.3401 73.242 82.8585C73.6745 82.3768 73.8483 81.8275 73.8417 81.1991C73.8351 80.5708 73.6414 79.8665 73.3876 79.0202C73.1338 78.1739 72.8522 77.1765 72.2697 76.0807C71.6872 74.9848 70.8903 73.7022 69.599 72.4392C68.3076 71.1763 66.6936 70.1801 65.2844 69.3666C63.8753 68.553 62.6632 67.9189 61.7132 67.4519C60.7631 66.9849 60.0527 66.6891 59.5389 66.5598C59.0251 66.4305 58.7052 66.4655 58.5917 66.6663C58.4782 66.8671 58.6483 67.201 59.1133 67.6501C59.5783 68.0991 60.3515 68.6641 61.441 69.3419C62.5306 70.0197 63.9621 70.8029 65.4033 71.7606C66.8445 72.7182 68.2982 73.8477 69.0508 75.2778Z" fill="#394655"/>
<path d="M69.3316 74.879C70.0791 76.0628 70.1236 77.4107 70.1361 78.6053C70.1487 79.8 70.4284 80.6918 70.8095 81.3297C71.1905 81.9677 71.5662 82.4042 71.9107 82.5987C72.2552 82.7931 72.5873 82.7369 72.9436 82.3442C73.2999 81.9514 73.403 81.4691 73.3382 80.8978C73.2733 80.3265 73.0423 79.665 72.8004 78.8512C72.5586 78.0374 72.3141 77.0707 71.7937 76.0508C71.2733 75.031 70.5299 73.9001 69.4622 72.8105C68.3945 71.721 67.0832 70.8484 65.896 70.1346C64.7089 69.4208 63.6476 68.8611 62.8063 68.4356C61.9649 68.0102 61.3291 67.7221 60.8829 67.5729C60.4366 67.4238 60.1758 67.4131 60.1105 67.5479C60.0452 67.6828 60.2481 67.9448 60.7107 68.3148C61.1733 68.6847 61.9058 69.1624 62.8707 69.7463C63.8355 70.3303 65.044 71.0183 66.2383 71.8568C67.4327 72.6953 68.5842 73.6951 69.3316 74.879Z" fill="#E1D6B9"/>
<path d="M39.9735 58.7523C38.4251 58.2938 37.3807 57.2416 36.3814 56.6195C35.3821 55.9974 34.4362 55.8077 33.6963 55.664C32.9564 55.5203 32.4074 55.4696 32.057 55.5772C31.7067 55.6849 31.5562 55.9453 31.635 56.4144C31.7139 56.8834 32.0099 57.2719 32.4812 57.6221C32.9524 57.9722 33.6008 58.2792 34.3936 58.6384C35.1863 58.9976 36.1093 59.429 37.2996 59.7777C38.4899 60.1264 39.9573 60.4817 41.7292 60.5992C43.5012 60.7166 45.2831 60.5361 46.7971 60.3469C48.3112 60.1577 49.5647 59.9581 50.5248 59.7847C51.485 59.6114 52.1632 59.4517 52.5909 59.2887C53.0186 59.1257 53.199 58.9593 53.123 58.7943C53.047 58.6294 52.6892 58.5197 52.0554 58.4807C51.4216 58.4416 50.5027 58.4788 49.2958 58.5976C48.089 58.7165 46.5831 58.933 44.9413 59.0559C43.2995 59.1788 41.5219 59.2108 39.9735 58.7523Z" fill="#394655"/>
<path d="M40.0895 59.106C38.7273 58.7835 37.6969 58.0463 36.801 57.3807C35.9051 56.715 35.0618 56.3421 34.3418 56.1583C33.6218 55.9746 33.0549 55.9016 32.6881 55.9503C32.3212 55.9991 32.1487 56.183 32.2106 56.5672C32.2726 56.9514 32.5645 57.2697 33.0309 57.5611C33.4973 57.8525 34.138 58.1182 34.8989 58.4647C35.6598 58.8111 36.5359 59.2423 37.6297 59.5768C38.7234 59.9112 40.0437 60.2058 41.5424 60.3284C43.0412 60.451 44.5358 60.3398 45.8325 60.1964C47.1291 60.053 48.2299 59.8808 49.0891 59.7339C49.9482 59.5871 50.5726 59.4573 50.9715 59.3365C51.3703 59.2156 51.5465 59.102 51.4885 58.9962C51.4305 58.8905 51.1048 58.8363 50.5313 58.8405C49.9578 58.8448 49.1301 58.9124 48.0734 59.0268C47.0168 59.1412 45.7256 59.3089 44.3317 59.3855C42.9378 59.4621 41.4516 59.4284 40.0895 59.106Z" fill="#E1D6B9"/>
<path d="M66.9608 8.79424C67.2248 9.42248 67.7374 9.92649 68.339 10.2871C68.9407 10.6477 69.6203 10.8726 70.2828 10.9778C70.9453 11.0829 71.5977 11.0682 72.2447 10.9038C72.8916 10.7393 73.6567 10.474 74.2031 10.0098C74.7496 9.54566 74.9432 8.96694 75.059 8.43488C75.1748 7.90282 75.2671 7.30214 75.622 6.57819C75.977 5.85426 76.2961 5.12002 76.2682 4.58511C76.2402 4.05019 76.1137 3.55946 75.8798 3.13733C75.6459 2.71521 75.3267 2.40061 74.9433 2.18009C74.56 1.95956 74.1125 1.83301 73.6185 1.79084C73.1245 1.74868 72.5838 1.79053 72.0139 1.91433C71.444 2.03814 70.845 2.24358 70.2349 2.54174C69.6248 2.83991 69.0605 3.20387 68.5658 3.62625C68.0712 4.04864 67.6461 4.53022 67.3304 5.05749C67.0147 5.58477 66.81 6.15847 66.7594 6.74602C66.7088 7.33357 66.6969 8.16601 66.9608 8.79424Z" fill="#96D6FF"/>
<path d="M70.537 2.00779C71.0337 1.80973 71.5214 1.66506 71.9918 1.5686C72.6191 1.43997 73.2147 1.39767 73.7599 1.44423C74.3051 1.4908 74.7996 1.62595 75.2251 1.86357C75.6506 2.10119 76.0064 2.44073 76.2714 2.89699C76.5364 3.35326 76.6867 3.88518 76.7282 4.46583C76.7698 5.04648 76.5446 5.78837 76.1445 6.57653C75.7443 7.36468 75.6339 8.02576 75.5116 8.6025C75.3897 9.17726 75.0068 9.70467 74.3091 10.1446C74.2285 10.1949 74.0531 9.98146 74.1144 9.9256C74.6566 9.44098 74.7889 8.86449 74.9716 8.38579C75.0869 7.86838 75.1789 7.28383 75.528 6.57881C75.8771 5.87381 76.1912 5.15879 76.1661 4.63782C76.141 4.11685 76.0199 3.63833 75.7933 3.22718C75.5668 2.81601 75.256 2.51043 74.8823 2.29569C74.5086 2.08095 74.0714 1.95681 73.5884 1.91579C73.1053 1.87478 72.5769 1.91563 72.0187 2.03631C71.7396 2.09667 71.4524 2.17761 71.1611 2.27909C70.8698 2.38054 70.5734 2.50282 70.2743 2.64789C69.6765 2.93859 69.1247 3.29326 68.6406 3.70504C68.1564 4.11679 67.7401 4.58693 67.4312 5.10046C67.1224 5.61398 66.9222 6.1717 66.8717 6.74321C66.8211 7.31473 66.8067 8.12353 67.0614 8.73439C67.2706 9.23604 67.6374 9.66196 68.0987 9.98147C68.1847 10.0409 67.8366 10.4078 67.5747 10.2473C67.0861 9.94761 66.7536 9.46667 66.542 8.95834C66.2559 8.27095 66.2169 7.39822 66.2664 6.75468C66.3159 6.11115 66.5347 5.4846 66.8755 4.9133C67.2163 4.342 67.6765 3.82476 68.2146 3.37406C68.7527 2.92337 69.3692 2.53762 70.0374 2.22418C70.2045 2.14584 70.3716 2.074 70.537 2.00779Z" fill="#394655"/>
<path d="M74.9323 5.33768C74.8448 5.19885 74.6216 5.15209 74.2755 5.24635C73.7497 5.38953 73.1484 5.97191 72.8172 6.41714C72.6355 6.66138 72.4294 6.89686 72.3249 7.18545C72.2894 7.28341 72.2582 7.38203 72.2851 7.51799C72.405 7.49543 72.4961 7.34144 72.5574 7.22368C72.7987 6.75952 73.1379 6.34549 73.5758 6.04098C73.9443 5.78479 73.991 5.60201 74.3619 5.44492C74.5966 5.34548 74.7324 5.40037 74.9323 5.33768Z" fill="#394655"/>
<path d="M72.882 6.32705C72.7801 6.21657 72.9727 6.55499 73.1004 6.59753C73.5795 6.75719 74.0393 6.97235 74.5115 7.15014C74.6653 7.208 74.7094 7.04856 74.5795 6.9659C74.4476 6.88195 74.3107 6.8253 74.1675 6.77254C74.0334 6.72315 73.8882 6.70401 73.7583 6.64526C73.5087 6.53239 73.3734 6.3801 73.1307 6.2531C73.0475 6.20954 72.9363 6.38583 72.8822 6.32717L72.882 6.32705Z" fill="#394655"/>
<path d="M87.7868 50.3282C86.6211 59.9232 84.5628 69.2406 77.2898 75.6033C68.1144 83.6302 51.2478 84.691 39.3168 77.0749C35.8664 74.8724 33.119 68.754 32.6788 64.7974C31.7587 56.5272 35.1601 50.9263 34.3657 43.2944C33.7334 37.2197 30.6566 32.1928 30.9481 24.9599C31.1438 20.1064 32.3329 14.4592 36.0175 11.4589C40.8445 7.52834 46.4805 5.27761 52.8724 5.43256C61.9753 5.65322 71.7919 6.27922 79.427 12.1158C84.8764 16.2816 87.9999 23.1615 88.5507 30.2226C89.1164 37.4757 88.5305 44.2056 87.7868 50.3282Z" fill="#394655"/>
<path d="M85.5052 59.1963C83.5578 68.0204 78.1937 76.2449 68.6827 79.5006C59.8455 82.5257 48.2221 81.8158 39.6255 76.0817C36.3533 73.8991 33.8572 67.8563 33.4984 64.1074C32.7431 56.2163 35.8821 50.4337 35.1632 43.1507C34.5631 37.0714 31.6564 32.666 31.7472 25.4558C31.8065 20.7436 32.8723 15.1567 36.4804 12.2336C41.0514 8.53049 46.286 6.17951 52.306 6.20976C61.8449 6.25769 72.6001 6.95025 80.1942 13.7923C87.1372 20.0476 88.1264 31.0624 87.8044 39.6617C87.5389 46.7543 86.8443 53.1288 85.5052 59.1963Z" fill="#96D6FF"/>
<path d="M38.7151 9.70557C39.1608 10.4757 39.2984 11.3258 39.2318 12.1326C39.1653 12.9394 38.9092 13.6978 38.5475 14.3446C38.1858 14.9913 37.7136 15.5323 37.0977 15.9458C36.4818 16.3594 35.6843 16.792 34.8403 16.8655C33.9962 16.9389 33.2798 16.6011 32.6542 16.2104C32.0286 15.8196 31.3369 15.3141 30.343 14.939C29.3492 14.564 28.3761 14.1654 27.8338 13.6123C27.2916 13.0593 26.8596 12.4531 26.569 11.8079C26.2784 11.1628 26.1554 10.5381 26.1735 9.94527C26.1915 9.35238 26.3508 8.79133 26.634 8.28161C26.9173 7.77188 27.3245 7.31352 27.847 6.93364C28.3694 6.55378 29.0068 6.25262 29.7607 6.06322C30.5147 5.87382 31.3156 5.81427 32.1306 5.87561C32.9456 5.93696 33.7752 6.11906 34.5673 6.41642C35.3594 6.71379 36.113 7.12689 36.7603 7.6514C37.4076 8.17593 38.2695 8.93543 38.7151 9.70557Z" fill="#96D6FF"/>
<path d="M29.0027 5.82898C28.4399 6.03777 27.9465 6.30985 27.5215 6.62976C26.9548 7.0563 26.5111 7.56771 26.1998 8.13345C25.8885 8.69919 25.709 9.31817 25.682 9.97074C25.6551 10.6233 25.7804 11.308 26.085 12.0135C26.3897 12.719 26.8467 13.3822 27.4243 13.9839C28.002 14.5856 28.9169 15.0707 30.0011 15.4481C31.0853 15.8254 31.8467 16.359 32.5171 16.7712C33.1853 17.182 33.9765 17.2975 34.9008 17.0709C35.0073 17.0446 34.9169 16.7128 34.8184 16.7175C33.9558 16.7673 33.2807 16.3694 32.6634 16.0861C32.052 15.7056 31.3765 15.213 30.4052 14.8482C29.434 14.4835 28.4831 14.0954 27.9527 13.5568C27.4224 13.0181 26.999 12.4273 26.7146 11.7986C26.43 11.1699 26.3105 10.5613 26.3282 9.98289C26.3458 9.40449 26.5008 8.85591 26.7781 8.35799C27.0555 7.86006 27.4537 7.41269 27.9651 7.04092C28.2208 6.85508 28.506 6.68797 28.8181 6.54445C29.1302 6.40092 29.4704 6.28012 29.839 6.18673C30.5766 6.00065 31.3588 5.94209 32.155 6.00115C32.9513 6.06022 33.7624 6.23782 34.5354 6.52778C35.3084 6.81774 36.0427 7.22035 36.6742 7.732C37.3057 8.24366 38.1468 8.98363 38.5828 9.7341C38.9408 10.3504 39.1057 11.0179 39.0981 11.6744C39.0966 11.7967 39.7046 11.809 39.7306 11.4561C39.7787 10.7975 39.5383 10.121 39.1798 9.50853C38.695 8.68033 37.8357 7.86171 37.1358 7.29476C36.4358 6.72783 35.6204 6.28359 34.7658 5.96733C33.9111 5.65107 33.0186 5.46143 32.1417 5.40439C31.2647 5.34737 30.4016 5.42277 29.5891 5.64181C29.386 5.69656 29.1904 5.75958 29.0027 5.82898Z" fill="#394655"/>
<path d="M30.7014 10.9168C30.7641 10.6708 31.0706 10.4958 31.6251 10.4699C32.4674 10.4307 33.63 11.0022 34.3295 11.5003C34.7132 11.7735 35.1288 12.0222 35.4199 12.3975C35.5187 12.5249 35.6117 12.6552 35.6367 12.8683C35.4494 12.8921 35.2419 12.7087 35.0958 12.5644C34.5196 11.9957 33.8231 11.5473 33.0334 11.3073C32.3688 11.1053 32.2133 10.8583 31.5923 10.8034C31.1993 10.7687 31.0255 10.9141 30.7014 10.9168Z" fill="#394655"/>
<path d="M34.1926 11.3966C34.2901 11.1854 34.1674 11.7754 33.9996 11.8988C33.37 12.3619 32.7953 12.8974 32.1845 13.3838C31.9856 13.5422 31.8448 13.3284 31.9967 13.1449C32.151 12.9585 32.3257 12.8099 32.5114 12.6642C32.6855 12.5276 32.8902 12.4303 33.0535 12.282C33.3674 11.9971 33.4942 11.7085 33.7911 11.406C33.8929 11.3023 34.1405 11.509 34.1923 11.3969L34.1926 11.3966Z" fill="#394655"/>
<path d="M49.3951 78.7035C48.9094 78.6153 48.5293 78.6438 48.2305 78.7677C47.9318 78.8915 47.7124 79.1099 47.5237 79.388C47.335 79.666 47.1736 80.0025 47.0117 80.364C46.8498 80.7255 46.6912 81.1125 46.5364 81.5019C46.3817 81.8912 46.2626 82.2665 46.1859 82.6175C46.1092 82.9686 46.0723 83.2949 46.0909 83.5825C46.1095 83.87 46.1852 84.1187 46.3448 84.3131C46.5044 84.5075 46.7488 84.6478 47.0966 84.7167C47.4444 84.7856 47.7256 84.7495 47.9476 84.6322C48.1695 84.5148 48.3311 84.3161 48.4535 84.061C48.576 83.8059 48.6594 83.4946 48.7499 83.151C48.8405 82.8073 48.9421 82.4316 49.1027 82.0415C49.2633 81.6513 49.5085 81.2742 49.742 80.9163C49.9756 80.5585 50.1934 80.2202 50.3108 79.9194C50.4282 79.6185 50.4451 79.356 50.3075 79.149C50.17 78.9421 49.8808 78.7916 49.3951 78.7035Z" fill="#E1D6B9"/>
<path d="M50.5875 79.8698C50.5017 80.1613 50.3365 80.4864 50.1433 80.834C49.9226 81.2314 49.6684 81.6572 49.4839 82.107C49.2994 82.5568 49.1714 82.9846 49.0488 83.3748C48.9261 83.7649 48.8037 84.1167 48.6341 84.4055C48.4646 84.6943 48.2481 84.9195 47.9734 85.0557C47.6987 85.1918 47.368 85.239 46.9847 85.1746C46.6014 85.1102 46.3175 84.9532 46.1217 84.7272C45.9259 84.5011 45.8172 84.2058 45.7734 83.8642C45.7297 83.5226 45.7492 83.1347 45.8196 82.7213C45.89 82.3079 46.0141 81.8695 46.1905 81.4209C46.3668 80.9723 46.5489 80.5467 46.7325 80.1597C46.9162 79.7727 47.0994 79.4244 47.3157 79.1433C47.398 79.0363 47.4861 78.9396 47.5811 78.8537C47.7731 78.6802 48.3108 78.8187 48.0799 78.9527C47.8659 79.0769 47.7962 79.2404 47.651 79.4608C47.4741 79.7293 47.348 80.0756 47.2057 80.4075C47.0635 80.7394 46.801 81.0527 46.6613 81.3987C46.5216 81.7446 46.4151 82.0801 46.3473 82.4006C46.2796 82.7211 46.2475 83.0259 46.2653 83.2968C46.283 83.5677 46.3529 83.8039 46.4995 83.9852C46.6461 84.1665 46.8702 84.2924 47.1795 84.3531C47.4888 84.4138 47.7327 84.3801 47.9165 84.2688C48.1003 84.1576 48.114 83.8448 48.2011 83.6088C48.2881 83.3728 48.4247 83.0839 48.5025 82.7802C48.5803 82.4765 48.7106 82.282 48.8981 81.9474C49.0855 81.6128 49.3734 81.2844 49.6375 80.9448C49.9016 80.6051 50.1144 80.2762 50.2273 79.9868C50.2414 79.9506 50.2542 79.915 50.2652 79.88C50.2934 79.7901 50.3135 79.7045 50.316 79.6231C50.3189 79.5291 50.6866 79.501 50.6193 79.7469C50.6084 79.7869 50.5998 79.8281 50.5875 79.8698Z" fill="#394655"/>
<g opacity="0.06">
<path d="M73.7305 41.1578C71.4825 41.1578 69.6602 39.479 69.6602 37.408C69.6602 35.337 71.4825 33.6582 73.7305 33.6582C75.9784 33.6582 77.8008 35.337 77.8008 37.408C77.8008 39.479 75.9784 41.1578 73.7305 41.1578Z" fill="black"/>
<path d="M31.5023 6.10054C30.3018 6.08779 29.5547 6.25186 28.672 6.69295C27.7586 7.14936 26.851 8.12823 26.5775 8.95176C26.1659 10.1907 26.501 11.6578 27.4871 12.9361C28.0666 13.6872 28.7289 14.1256 30.1358 14.6893C30.7175 14.9223 31.53 15.324 31.9414 15.5819C32.9605 16.2209 33.7245 16.5462 34.3964 16.6273C34.8355 16.6802 34.9612 16.7428 34.9612 16.9091C34.9612 17.0708 34.8332 17.1422 34.4371 17.2016C34.149 17.2449 33.7534 17.2453 33.5579 17.2023C33.2043 17.1247 33.2006 17.1289 32.895 18.0518C32.1921 20.1739 31.8387 22.7396 31.8419 25.6947C31.8454 29.016 32.1729 30.9327 33.5788 35.856C34.587 39.3871 34.8762 40.6428 35.1343 42.6116C35.5066 45.4514 35.3727 47.4349 34.4261 53.0891C33.5443 58.3568 33.4908 58.8356 33.4863 61.5273C33.482 64.1163 33.6014 65.126 34.1255 66.9323C35.1128 70.3353 36.6144 73.1179 38.4601 74.964C39.911 76.4153 42.5625 77.9124 45.9359 79.1853C46.9284 79.5598 46.994 79.5698 47.1083 79.3655C47.4206 78.8074 47.69 78.6807 48.8002 78.6768C41.7873 72.5562 42.5485 63.7569 44.1729 58.9271C45.5026 54.9734 49.9328 49.2757 49.9328 49.2757L45.8698 48.9163C45.8698 48.9163 44.5536 41.1862 43.4845 38.0553C39.3896 26.0641 38.0774 16.2342 44.2769 9.37386C45.3362 8.20158 46.5611 7.34089 47.8321 6.70925C46.1955 7.0535 44.514 7.58051 43.0428 8.21914C41.8367 8.74272 39.5956 10.0158 39.5992 10.1752C39.6008 10.246 39.6549 10.5332 39.7196 10.8136C39.8644 11.4412 39.705 11.8216 39.3205 11.7669C39.1053 11.7362 39.049 11.6289 38.9887 11.1348C38.8743 10.1973 38.4084 9.43093 37.3446 8.43019C35.6669 6.85188 34.2087 6.21501 32.0462 6.11649C31.8545 6.10775 31.6738 6.10237 31.5023 6.10054ZM31.7527 10.4701C32.0942 10.4818 32.4768 10.5457 32.8196 10.6596C33.5433 10.9 35.0598 11.8726 35.4148 12.3239C35.9596 13.0165 35.605 13.0509 34.7976 12.3837C34.4812 12.1222 34.1866 11.9085 34.1432 11.9085C34.0998 11.9085 33.6377 12.2559 33.1163 12.6804C32.5949 13.105 32.1014 13.4524 32.0196 13.4527C31.6773 13.454 31.9172 13.0752 32.5834 12.5625C33.4251 11.9148 33.6511 11.5857 33.3319 11.473C33.2147 11.4315 32.8019 11.2673 32.4145 11.1079C31.8683 10.8832 31.5947 10.8353 31.1964 10.8951C30.6404 10.9784 30.5035 10.8242 30.9308 10.5955C31.1102 10.4994 31.4111 10.4585 31.7527 10.4701ZM50.5689 80.0414C50.568 80.0442 50.5677 80.0461 50.5668 80.0489L50.4397 80.4639L51.4652 80.648C51.4815 80.651 51.5024 80.6539 51.519 80.6569C51.1895 80.4552 50.8731 80.2499 50.5689 80.0414Z" fill="black"/>
<path fill-rule="evenodd" clip-rule="evenodd" d="M48.5098 49.3007L47.6982 51.9985C48.1713 52.0031 49.4825 50.8346 50.7361 50.7624C64.6865 49.959 73.4074 50.6888 84.687 49.7824C84.9507 49.7612 85.3696 49.7626 85.6309 49.8201C86.5764 50.0282 87.0977 52.426 87.3284 52.2867C87.4382 49.7252 86.9071 48.8163 86.2737 48.1716L48.5098 49.3007Z" fill="black"/>
</g>
<path d="M42.7283 25.8967C42.7807 27.6539 43.2194 29.3495 43.9641 30.9227C44.7089 32.496 45.7594 33.9473 47.0336 35.2046C48.3079 36.4619 49.8057 37.5251 51.4489 38.308C53.0921 39.0909 54.8808 39.593 56.7425 39.719C58.6042 39.845 60.3634 39.5812 61.9547 38.9853C63.5459 38.3895 64.9689 37.4619 66.1537 36.2728C67.3385 35.0836 68.2849 33.6332 68.9212 32.0015C69.5576 30.3697 69.8837 28.5568 69.8303 26.6509C69.7768 24.7451 69.3492 22.9285 68.6238 21.2887C67.8985 19.649 66.8757 18.1863 65.6299 16.9759C64.384 15.7655 62.9151 14.8073 61.2927 14.1613C59.6703 13.5153 57.894 13.1809 56.0316 13.2067C54.1692 13.2326 52.3963 13.6144 50.7846 14.2703C49.173 14.9263 47.7228 15.8568 46.5112 16.9961C45.2997 18.1354 44.327 19.4838 43.671 20.9848C43.015 22.4859 42.6759 24.1396 42.7283 25.8967Z" fill="#394655"/>
<path d="M43.6455 25.4949C43.6454 27.1483 44.0042 28.7706 44.6582 30.2949C45.3121 31.8192 46.2617 33.2455 47.4389 34.4883C48.616 35.731 50.0207 36.7889 51.5766 37.5665C53.1325 38.3442 54.8389 38.8408 56.6175 38.9662C58.396 39.0916 60.0779 38.8339 61.5966 38.2607C63.1154 37.6875 64.4716 36.7991 65.6012 35.6687C66.7309 34.5382 67.6341 33.1656 68.2458 31.6297C68.8575 30.0939 69.1776 28.3948 69.1407 26.6176C69.1038 24.8404 68.7137 23.1551 68.0428 21.6385C67.3719 20.1219 66.4206 18.774 65.2598 17.6571C64.0989 16.5402 62.7287 15.6541 61.215 15.0471C59.7013 14.44 58.0437 14.1112 56.304 14.1022C54.5644 14.0933 52.9069 14.4035 51.396 14.964C49.8852 15.5245 48.5213 16.3359 47.3736 17.3473C46.2259 18.3587 45.2945 19.5704 44.6495 20.9411C44.0045 22.3118 43.6457 23.8415 43.6455 25.4949Z" fill="white"/>
<path d="M53.3566 29.3202C51.3326 29.3202 49.6918 27.6794 49.6918 25.6553C49.6918 23.6313 51.3326 21.9905 53.3566 21.9905C55.3807 21.9905 57.0215 23.6313 57.0215 25.6553C57.0215 27.6794 55.3807 29.3202 53.3566 29.3202Z" fill="#394455"/>
<path d="M54.9798 25.7752C53.9844 25.7752 53.1775 24.9682 53.1775 23.9728C53.1775 22.9774 53.9844 22.1704 54.9798 22.1704C55.9753 22.1704 56.7822 22.9774 56.7822 23.9728C56.7822 24.9682 55.9753 25.7752 54.9798 25.7752Z" fill="white"/>
<path d="M77.2541 19.0972C77.2193 20.488 77.5029 21.9907 77.9264 23.5437C78.3498 25.0968 78.9002 26.7023 79.4567 28.2369C80.0132 29.7716 80.5773 31.2281 81.1892 32.4728C81.8012 33.7174 82.4707 34.7503 83.2968 35.4912C84.1229 36.232 85.0361 36.6162 86.0216 36.6997C87.007 36.7833 88.241 36.9535 89.2964 36.4737C90.3518 35.9939 91.393 35.2467 92.3203 34.2558C93.2476 33.265 94.061 32.03 94.6579 30.5784C95.2548 29.1269 95.5771 27.597 95.6212 26.0777C95.6653 24.5584 95.4309 23.0504 94.9327 21.6385C94.4345 20.2265 93.3054 18.4854 92.3171 17.3411C91.3287 16.1968 90.1131 15.2236 88.7323 14.494C87.3516 13.7645 85.9389 13.3471 84.6014 13.2135C83.2639 13.0798 82.0012 13.2305 80.9147 13.6423C79.8283 14.0542 78.9187 14.7269 78.2821 15.6405C77.6456 16.5541 77.289 17.7065 77.2541 19.0972Z" fill="#394655"/>
<path d="M77.8635 19.2613C77.7913 20.5523 77.9907 21.9642 78.3415 23.435C78.6923 24.9058 79.1902 26.436 79.7418 27.8967C80.2935 29.3573 80.8958 30.741 81.5409 31.919C82.1859 33.097 82.8785 34.0701 83.6853 34.7663C84.4921 35.4625 85.3469 35.8214 86.2511 35.8986C87.1552 35.9758 88.302 36.1588 89.2483 35.7076C90.1946 35.2563 91.1242 34.5552 91.9502 33.6277C92.7761 32.7003 93.4983 31.5458 94.0227 30.1912C94.547 28.8367 94.8222 27.4111 94.8445 25.9965C94.8668 24.5819 94.6359 23.1787 94.1653 21.8638C93.6946 20.549 92.612 18.8893 91.6945 17.8206C90.777 16.752 89.6538 15.8406 88.3836 15.1537C87.1134 14.4667 85.8192 14.0687 84.5993 13.932C83.3793 13.7954 82.2337 13.9205 81.2502 14.2856C80.2668 14.6508 79.4461 15.2553 78.8624 16.0857C78.2787 16.916 77.9358 17.9704 77.8635 19.2613Z" fill="white"/>
<path d="M91.3759 25.4168C89.895 24.9431 89.0784 23.3587 89.5521 21.8778C90.0257 20.3969 91.6102 19.5804 93.0911 20.054C94.572 20.5277 95.3885 22.1121 94.9149 23.593C94.4412 25.0739 92.8567 25.8904 91.3759 25.4168Z" fill="#394455"/>
<path d="M92.9452 22.9937C92.2169 22.7608 91.8153 21.9815 92.0482 21.2532C92.2812 20.5249 93.0604 20.1234 93.7887 20.3563C94.517 20.5892 94.9186 21.3685 94.6856 22.0968C94.4527 22.8251 93.6735 23.2267 92.9452 22.9937Z" fill="white"/>
<path d="M75.5561 36.5118L74.4017 36.5268L73.7288 36.5119C73.5142 36.5071 73.323 36.609 73.1837 36.7591C73.0444 36.9093 72.9758 37.1172 72.9434 37.3442L72.7597 38.6288L72.5046 39.918C72.4587 40.1502 72.5199 40.3549 72.6325 40.5038C72.7451 40.6528 72.9178 40.7377 73.1214 40.7425L73.8003 40.7587L75.1431 40.7274C75.4007 40.7214 75.6399 40.6213 75.8154 40.4676C75.9908 40.3139 76.0946 40.1048 76.1155 39.8767L76.2329 38.5974L76.3281 37.3201C76.3451 37.0928 76.2435 36.8891 76.1008 36.7433C75.9582 36.5975 75.7641 36.5105 75.5561 36.5118Z" fill="#2E3436"/>
<path d="M75.3441 36.9009L74.402 36.9136L73.9532 36.8952C73.7828 36.8882 73.6254 36.9742 73.507 37.0971C73.3886 37.22 73.3195 37.3904 73.2873 37.5764L73.1056 38.6267L72.878 39.6797C72.8374 39.8677 72.8784 40.037 72.9668 40.1586C73.0552 40.2803 73.1964 40.3461 73.3654 40.3528L73.8263 40.3712L74.8933 40.348C75.0954 40.3436 75.2877 40.2624 75.4324 40.1369C75.577 40.0114 75.6697 39.8405 75.6933 39.6538L75.8257 38.6076L75.94 37.5628C75.9604 37.3767 75.8882 37.2097 75.7783 37.0903C75.6684 36.9709 75.5142 36.8986 75.3441 36.9009Z" fill="white"/>
<path d="M70.091 35.4224C70.1232 35.8343 70.3768 36.2068 70.7374 36.5423C71.098 36.8778 71.596 37.1751 72.1728 37.4187C72.7495 37.6623 73.4001 37.8496 74.0592 37.9497C74.7182 38.0498 75.3859 38.0609 76.0421 37.9818C76.6984 37.9027 77.2861 37.7452 77.7963 37.5506C78.3065 37.356 78.7351 37.1251 79.0728 36.869C79.4104 36.6129 79.66 36.3293 79.8176 36.0126C79.9753 35.696 80.0406 35.3455 79.9835 34.9678C79.9263 34.5901 79.7492 34.2218 79.4759 33.8834C79.2026 33.545 78.8351 33.237 78.4033 32.9806C77.9715 32.7242 77.4763 32.5197 76.9296 32.3856C76.3829 32.2516 75.7842 32.1878 75.1291 32.2095C74.4741 32.2311 73.8204 32.3354 73.1997 32.5077C72.5791 32.6801 71.9942 32.9217 71.5066 33.2167C71.0191 33.5118 70.6184 33.8517 70.3846 34.2355C70.145 34.6286 70.0636 35.0716 70.091 35.4224Z" fill="#394655"/>
<path d="M71.4771 35.3305C71.5334 35.6576 71.7248 35.9631 72.0186 36.2369C72.3125 36.5106 72.7085 36.7531 73.1585 36.9465C73.6084 37.14 74.1102 37.2831 74.6218 37.3582C75.1333 37.4334 75.6553 37.4403 76.1686 37.3776C76.6818 37.315 77.1402 37.1909 77.5379 37.0323C77.9357 36.8738 78.2713 36.6809 78.5345 36.4657C78.7978 36.2505 78.9894 36.0121 79.1024 35.7525C79.2154 35.4928 79.2501 35.2112 79.1912 34.913C79.1324 34.6147 78.9847 34.3282 78.7667 34.0668C78.5487 33.8054 78.261 33.5694 77.922 33.3741C77.5831 33.1787 77.1933 33.0242 76.7636 32.9242C76.3338 32.8243 75.864 32.7789 75.3554 32.8C74.8467 32.821 74.345 32.9063 73.871 33.0432C73.397 33.1801 72.9516 33.3691 72.5754 33.5983C72.1992 33.8275 71.8938 34.097 71.6992 34.3911C71.5047 34.6852 71.4209 35.0034 71.4771 35.3305Z" fill="#E1D0CB"/>
<path d="M73.2986 33.334C73.3806 33.5684 73.5589 33.7766 73.8056 33.9523C74.0523 34.128 74.3664 34.2715 74.7072 34.3816C75.0481 34.4916 75.4142 34.5686 75.7724 34.6095C76.1307 34.6505 76.4811 34.6553 76.8095 34.619C77.1378 34.5827 77.4149 34.5088 77.6495 34.4061C77.884 34.3033 78.0759 34.1716 78.2272 34.0165C78.3784 33.8615 78.4891 33.6828 78.5533 33.485C78.6176 33.2871 78.6353 33.0697 78.5917 32.84C78.5482 32.6103 78.4465 32.3901 78.2927 32.1911C78.139 31.9921 77.9332 31.8145 77.6845 31.6704C77.4358 31.5262 77.1441 31.4157 76.8202 31.3501C76.4962 31.2845 76.14 31.2638 75.7644 31.2974C75.3889 31.3309 75.0295 31.4155 74.7046 31.5385C74.3797 31.6615 74.0892 31.8229 73.854 32.0102C73.6189 32.1975 73.4391 32.4107 73.3384 32.6362C73.2377 32.8617 73.2165 33.0996 73.2986 33.334Z" fill="#394655"/>
<path d="M51.7217 56.5321C51.3802 56.8886 51.1943 57.2213 51.1328 57.5388C51.0713 57.8563 51.1324 58.1598 51.2602 58.4706C51.3881 58.7813 51.5797 59.1016 51.7919 59.4361C52.0041 59.7706 52.2393 60.1163 52.4787 60.4602C52.7181 60.804 52.9654 61.1104 53.2159 61.368C53.4664 61.6256 53.7182 61.8364 53.9683 61.9796C54.2184 62.1227 54.4675 62.1968 54.7177 62.1709C54.968 62.1451 55.2198 62.0186 55.4691 61.7665C55.7185 61.5144 55.8435 61.26 55.8681 61.0101C55.8926 60.7602 55.816 60.5159 55.6708 60.273C55.5256 60.0301 55.312 59.7889 55.0753 59.5238C54.8386 59.2586 54.5814 58.9666 54.3445 58.6174C54.1077 58.2683 53.9284 57.8557 53.7588 57.4635C53.5892 57.0713 53.4272 56.703 53.2411 56.4391C53.0549 56.1752 52.8452 56.0163 52.5967 56.0169C52.3483 56.0174 52.0632 56.1756 51.7217 56.5321Z" fill="#E1D6B9"/>
<path d="M53.3525 56.1813C53.5483 56.4136 53.7283 56.7308 53.9117 57.0837C54.1214 57.487 54.3363 57.9339 54.6097 58.3359C54.8831 58.738 55.1693 59.0807 55.4271 59.3982C55.6848 59.7157 55.9107 60.012 56.058 60.3127C56.2054 60.6134 56.2738 60.9183 56.2358 61.2224C56.1978 61.5266 56.0547 61.8285 55.7895 62.1127C55.5244 62.3969 55.2368 62.5471 54.9403 62.5857C54.6437 62.6242 54.3374 62.552 54.0284 62.4001C53.7193 62.2481 53.4066 62.0179 53.1006 61.7311C52.7946 61.4443 52.4974 61.0989 52.2206 60.7044C51.9437 60.3098 51.6891 59.9232 51.4677 59.5565C51.2462 59.1897 51.0568 58.8448 50.9417 58.5094C50.8979 58.3817 50.8657 58.2549 50.8465 58.1282C50.8077 57.8724 51.2199 57.5003 51.2043 57.7669C51.1898 58.0138 51.2454 58.2547 51.3463 58.5C51.4692 58.7989 51.6536 59.1069 51.8577 59.4286C52.0618 59.7503 52.2881 60.0828 52.5183 60.4135C52.7486 60.7443 52.9863 61.0389 53.2273 61.2867C53.4682 61.5345 53.7104 61.7373 53.9509 61.875C54.1914 62.0126 54.4312 62.0838 54.6718 62.0589C54.9125 62.0341 55.1546 61.9125 55.3944 61.6701C55.6342 61.4277 55.7546 61.1828 55.7782 60.9424C55.8018 60.7021 55.7282 60.4672 55.5885 60.2336C55.4489 60 55.2433 59.7679 55.0157 59.5129C54.7881 59.2579 54.5407 58.9771 54.3129 58.6413C54.0851 58.3054 53.9125 57.9086 53.7494 57.5314C53.5863 57.1542 53.4305 56.8 53.2514 56.5462C53.2291 56.5145 53.2063 56.4842 53.1832 56.4557C53.1238 56.3826 53.0636 56.3186 52.997 56.2716C52.9202 56.2174 53.0996 55.8951 53.2676 56.087C53.2949 56.1181 53.3246 56.1481 53.3525 56.1813Z" fill="#394655"/>
<path fill-rule="evenodd" clip-rule="evenodd" d="M34.4068 46.3374C32.7576 50.2096 31.6335 51.6082 28.9185 54.4664C26.8332 56.6619 23.6878 58.9021 20.9755 61.649C18.5185 64.1373 16.2394 65.457 9.33197 67.4526C7.16102 68.0797 1.34913 68.6401 0 74.2155C8.40657 68.6148 22.1779 69.9802 30.3777 65.2257C37.256 61.2375 46.5897 50.0933 53.5009 49.2041C40.5472 49.0831 36.7121 48.2562 34.4068 46.3374Z" fill="#019833"/>
<path fill-rule="evenodd" clip-rule="evenodd" d="M74.7764 48.5281L88.1518 47.6033C88.1518 47.6033 88.5675 47.7928 88.6389 47.9867C89.974 51.6092 86.3325 59.0176 86.3325 59.0176C86.3325 58.4789 88.7857 51.0505 85.2601 49.3243C82.2785 47.8646 78.3414 48.9494 74.7764 48.5281Z" fill="#019833"/>
<path fill-rule="evenodd" clip-rule="evenodd" d="M34.2756 46.6377C32.6968 50.2791 31.5601 51.6848 28.9181 54.4662C26.8327 56.6616 23.6875 58.9019 20.9752 61.6487C18.5181 64.1371 16.239 65.457 9.33163 67.4525C7.40418 68.0093 2.6094 68.5166 0.613281 72.5246C1.10852 71.8923 1.91986 71.6406 2.40477 70.9472C3.22189 69.7789 13.4323 68.8414 16.1244 67.1277C17.896 66 22.037 63.9188 24.1168 62.5223C26.1966 61.1259 33.2124 55.3027 34.9913 54.9754C40.61 53.9414 45.1529 49.1816 45.1529 49.1816C45.1529 49.1816 44.1071 48.9384 43.8286 48.8738C39.0304 48.5159 36.654 47.8618 35.072 46.8286C34.7494 46.7518 34.3855 46.6657 34.2756 46.6377Z" fill="#019432"/>
<path fill-rule="evenodd" clip-rule="evenodd" d="M34.4538 45.5C35.3473 45.7238 35.8274 46.4499 36.7018 46.7396C39.3908 47.6303 41.8183 48.2153 44.6434 48.4203C48.1219 48.6727 51.9133 48.6926 55.4003 48.6304C62.0416 48.512 68.7249 48.2816 75.3593 47.9581C78.9765 47.7818 82.7172 47.5431 86.3263 47.2438C87.0277 47.1857 87.7723 46.1458 88.4273 46.4034C88.8613 46.5742 88.7918 47.0017 88.906 47.4539C89.3485 48.348 88.9323 48.6585 87.881 48.8405C84.3566 49.3939 80.7724 49.4857 77.2082 49.6389C68.5037 50.0131 59.7844 50.0226 51.0724 49.933C47.9896 49.9013 44.8865 50.0278 41.8282 49.6389C39.4214 49.3328 36.9504 49.0131 34.727 48.0422C33.9793 47.7157 33.2776 47.5475 33.1002 46.7511C33.0444 46.5008 33.3167 46.3564 33.4414 46.1529C33.5455 45.9829 33.48 45.7431 33.666 45.6366C33.909 45.4973 34.1821 45.432 34.4538 45.5Z" fill="#01A939"/>
<path fill-rule="evenodd" clip-rule="evenodd" d="M33.5506 45.7778C33.5057 45.8936 33.5114 46.039 33.4412 46.1535C33.3166 46.357 33.0444 46.5012 33.1002 46.7516C33.2776 47.548 33.9793 47.7162 34.727 48.0427C36.9504 49.0136 39.4213 49.3332 41.8281 49.6393C44.8864 50.0282 47.9895 49.9019 51.0723 49.9336C59.7843 50.0231 68.5038 50.0135 77.2082 49.6393C80.7725 49.4861 84.3565 49.3946 87.8809 48.8412C88.9322 48.6592 89.3485 48.3486 88.906 47.4545C88.8959 47.4146 88.8885 47.3753 88.8808 47.3359C88.969 48.1789 87.6724 48.2249 86.7279 48.4095C80.6286 49.6017 74.3122 49.052 68.0983 49.1521C60.3244 49.2773 51.1742 50.3342 43.5193 48.9739C40.2939 48.4008 35.5595 47.1297 33.5506 45.7778Z" fill="#019D35"/>
<path d="M81.7652 61.5336L70.959 53.002L59.0668 66.8983L69.873 75.43L81.7652 61.5336Z" fill="#005D04"/>
<path d="M80.7239 61.7792L70.9072 54.0288L60.1041 66.6526L69.9207 74.403L80.7239 61.7792Z" fill="#019833"/>
<path d="M64.9214 74.1535L64.3469 60.5254L62.8348 60.6151L63.2543 59.289L71.3161 57.3837L71.2223 58.1197C70.9162 58.3853 70.5821 58.6502 70.2199 58.9143C69.8729 59.1748 69.5055 59.4326 69.1176 59.6879L69.015 67.3487L75.1048 58.0498L73.2489 58.1538L73.6684 56.8277L80.1315 55.3002L69.2065 72.6722L69.2222 72.6909C68.63 72.92 67.9565 73.161 67.2016 73.4138C66.4468 73.6666 65.6867 73.9131 64.9214 74.1535Z" fill="#FEFEFE" stroke="#005D04" stroke-width="2.71599" stroke-linejoin="bevel"/>
</svg>
